PathFileType	4	(X/Y/Z)	C:/Users/beibeiliu/ov580/test_trc/User2\sequence.25_training_dense_left.trc
DataRate	CameraRate	NumFrames	NumMarkers	Units	OrigDataRate	OrigDataStartFrame	OrigNumFrames
120	120	17	19	mm	120	1	118
Frame#	Time	ThumbCMC			ThumbMCP			ThumbIP			ThumbTip			IndexMCP			IndexPIP			IndexTip			MiddleMCP			MiddlePIP			MiddleTip			RingMCP			RingPIP			RingTip			PinkyMCP			PinkyPIP			PinkyTip			BackHand1			BackHand2			BackHand3	
		X0	Y0	Z0	X1	Y1	Z1	X2	Y2	Z2	X3	Y3	Z3	X4	Y4	Z4	X5	Y5	Z5	X6	Y6	Z6	X7	Y7	Z7	X8	Y8	Z8	X9	Y9	Z9	X10	Y10	Z10	X11	Y11	Z11	X12	Y12	Z12	X13	Y13	Z13	X14	Y14	Z14	X15	Y15	Z15	X16	Y16	Z16	X17	Y17	Z17	X18	Y18	Z18	
0	0	-253.488	68.2729	3.09039	-213.971	76.3299	-4.30004	-178.6	73.8132	-17.7336	-159.032	46.0651	-26.3548	-235.857	37.1398	-72.3312	-222.675	38.5597	-96.3801	-206.195	35.7361	-124.853	-207.235	23.4939	-65.7083	-173.013	36.7524	-58.3174	-176.754	50.6033	-20.3014	-194.988	8.74315	-53.3125	-169.068	21.8657	-46.8091	-171.733	41.088	-15.4487	-205.581	-21.062	-34.4008	-189.52	-27.4897	-48.7943	-175.455	-34.8611	-70.3119	-250.185	-3.04816	-19.2683	-272.912	-2.73987	12.1835	-273.911	27.6964	-15.1798	
1	0.00833333	-265.039	67.555	0.373331	-230.918	87.558	-7.66456	-197.542	87.4257	-18.0289	-171.778	69.1765	-24.841	-239.162	40.8546	-73.9442	-224.318	42.9707	-99.7038	-207.374	43.8627	-124.171	-207.521	37.1724	-67.0427	-180.967	56.6294	-60.1867	-188.67	70.6259	-20.4078	-193.096	20.6724	-51.0989	-173.726	45.2744	-45.9755	-186.082	63.1967	-11.4285	-199.676	-3.2005	-31.3476	-175.367	-9.60293	-50.5872	-162.695	-14.721	-65.4924	-244.975	-0.834141	-15.034	-267.24	-4.06802	8.8315	-274.696	25.6407	-17.3697	
2	0.0166667	-275.354	67.0621	0.718621	-247.231	92.3606	-7.33168	-209.55	102.317	-22.2158	-187.359	88.8988	-24.3081	-244.664	47.6314	-79.5209	-229.47	48.2253	-98.2586	-216.469	53.3849	-122.858	-212.375	43.7143	-65.8434	-189.372	72.0697	-59.9852	-200.931	87.1448	-24.9184	-199.314	36.0664	-53.0242	-180.699	65.2099	-43.4744	-196.57	76.3594	-13.2815	-194.334	8.68825	-32.5188	-171.31	9.53818	-48.1342	-155.774	9.17071	-64.8623	-240.857	2.9163	-16.1763	-261.819	-1.66716	8.80412	-275.746	22.6522	-15.1226	
3	0.025	-283.3	68.6558	-5.91464	-258.615	94.3505	-12.8623	-227.498	109.394	-25.9363	-201.656	102.487	-29.951	-250.375	46.9512	-79.7181	-239.32	51.8789	-105.469	-222.258	53.6496	-122.393	-222.162	51.1813	-68.925	-200.969	83.8631	-62.5315	-213.674	94.617	-27.0897	-203.746	47.6012	-57.5355	-190.317	76.5614	-48.2294	-206.783	88.2077	-22.256	-198.745	23.0682	-36.0746	-176.564	25.6853	-53.7426	-158.813	23.8035	-68.5908	-239.549	9.83464	-19.8886	-255.779	-1.66645	8.50491	-277.45	22.4493	-18.8734	
4	0.0333333	-291.788	62.1308	-3.45783	-271.824	94.9082	-19.1276	-245.552	114.516	-32.9852	-215.409	108.312	-40.2764	-265.557	44.2741	-80.5509	-253.915	47.5229	-103.96	-241.763	52.1713	-129.048	-232.334	56.8228	-77.8905	-218.939	90.3743	-68.8353	-228.551	100.378	-35.9502	-210.517	50.3624	-59.9459	-204.835	84.344	-55.9908	-220.653	92.4656	-24.9654	-199.021	27.4443	-39.9305	-185.444	34.1928	-59.0983	-166.491	33.0662	-75.8755	-242.691	10.0459	-21.2836	-260.454	2.00528	5.19326	-280.689	20.3697	-18.4153	
5	0.0416667	-298.671	58.4797	-8.67666	-284.336	89.8121	-22.9234	-257.451	108.543	-42.3576	-229.658	106.989	-50.2197	-279.149	37.7584	-81.6632	-264.523	39.6893	-109.833	-258.297	44.093	-133.205	-242.287	51.5947	-80.1206	-232.931	85.7109	-78.2502	-240.402	96.4022	-40.9245	-221.651	48.5064	-66.5814	-215.689	82.3218	-63.6968	-228.69	93.5303	-35.3906	-209.893	27.1723	-47.1369	-196.423	33.8844	-65.0305	-177.465	36.1153	-83.88	-252.273	9.04125	-21.0809	-261.656	0.122603	7.16465	-290	16.9282	-17.964	
6	0.05	-307.915	54.078	-9.89705	-294.191	85.792	-28.3391	-270.968	102.284	-45.3706	-244.348	100.325	-58.089	-286.594	27.0164	-86.1921	-284.202	29.7668	-109.093	-273.597	30.7721	-135.661	-254.185	43.6059	-85.2195	-247.195	76.1151	-87.3466	-254.201	91.9439	-48.0697	-238.875	40.921	-73.4347	-229.247	73.3708	-75.4467	-243.702	90.4506	-43.5084	-217.207	22.2969	-53.0048	-202.862	28.3732	-77.0058	-190.322	30.0258	-95.515	-259.285	6.6396	-22.5397	-264.422	-3.79595	8.18715	-294.032	8.58618	-15.6896	
7	0.0583333	-317.408	47.1705	-5.82414	-305.339	78.0262	-29.1897	-283.653	95.4336	-57.7246	-257.558	93.3832	-70.5538	-302.702	15.3735	-84.9403	-300.222	16.2939	-114.027	-291.485	15.2608	-136.605	-270.772	32.9426	-89.286	-261.716	65.2784	-93.0744	-271.295	83.1898	-54.8612	-252.628	31.2334	-80.0263	-241.501	63.0395	-83.3888	-251.714	81.4915	-55.4563	-228.977	13.3051	-61.5392	-219.663	18.7847	-81.5822	-205.932	19.732	-106.991	-263.159	-1.73291	-23.3881	-270.364	-7.97364	5.81937	-305.181	2.36175	-15.569	
8	0.0666667	-326.674	42.3737	-7.80023	-315.998	68.9821	-34.1874	-297.791	81.7678	-60.5648	-272.874	77.6192	-78.6468	-321.16	5.01499	-80.579	-319.181	2.70041	-112.514	-317.446	2.73447	-140.744	-291.178	17.8863	-88.9067	-277.791	54.1549	-96.8711	-283.331	71.9146	-62.8839	-268.37	18.8348	-84.7888	-259.993	49.1755	-92.0553	-270.644	71.4879	-63.1171	-246.426	3.32761	-61.1868	-238.504	6.23032	-85.6558	-226.711	3.94779	-110.577	-278.766	-7.72282	-25.4278	-280.299	-12.2214	9.5002	-314.982	-1.76492	-11.3442	
9	0.075	-336.079	39.8752	-5.05208	-328.949	66.1848	-38.0607	-314.245	75.9548	-67.4624	-289.834	66.005	-83.1614	-343.541	-3.44409	-76.7351	-341.875	-8.48616	-102.522	-341.237	-11.0159	-132.708	-313.928	5.93022	-89.7319	-302.045	37.8508	-103.038	-298.149	60.3638	-71.0648	-292.565	3.5903	-86.8539	-278.748	29.3316	-99.0209	-283.755	56.5836	-72.9824	-270.737	-9.02703	-62.3513	-258.617	-11.7308	-89.5888	-252.806	-15.8607	-112.215	-293.575	-16.142	-21.9865	-295.349	-16.5522	8.57094	-331.103	-4.12039	-5.48165	
10	0.0833333	-342.002	43.2028	-8.373	-330.034	60.2482	-41.6401	-315.669	62.4856	-75.1637	-296.553	46.4356	-94.1338	-361.238	-8.95766	-69.9961	-368.066	-14.5895	-95.7084	-367.282	-20.7043	-127	-331.372	-6.82836	-86.5505	-316.29	18.6875	-103.327	-302.174	44.2458	-75.6637	-306.823	-16.1633	-80.702	-296.242	6.81462	-100.227	-293.594	38.8274	-77.6663	-290.925	-26.8034	-58.2161	-283.088	-36.8136	-84.7412	-278.717	-43.5165	-107.816	-311.06	-22.2967	-15.7822	-310.024	-17.0594	12.8854	-342.771	-3.17836	-0.351261	
11	0.0916667	-335.982	46.4787	-7.73933	-324.908	61.2149	-46.0616	-312.291	56.4866	-79.9366	-297.661	33.4465	-93.8171	-375.876	-3.5985	-65.1445	-384.996	-10.661	-91.5999	-387.551	-17.5953	-116.114	-345.351	-11.0842	-79.3113	-322.651	8.92229	-102.655	-304.467	36.6611	-76.8957	-324.269	-24.9238	-74.4531	-312.04	-6.4867	-98.2833	-297.157	22.3123	-81.3719	-310.959	-39.942	-56.8216	-306.828	-49.7792	-77.3219	-302.783	-63.5124	-102.793	-325.755	-24.9947	-12.0995	-318.455	-17.3289	19.137	-350.952	6.52787	0.867644	
12	0.1	-332.873	50.3403	-11.7303	-316.456	57.6054	-45.6058	-305.451	54.7383	-81.5866	-297.878	28.7474	-98.3501	-384.536	12.1972	-63.5899	-396.061	9.32467	-87.313	-402.15	2.45522	-110.708	-356.365	-1.18551	-79.1127	-329.06	12.241	-101.36	-303.677	31.2021	-81.1903	-337.279	-22.3062	-74.5028	-321.003	-2.33383	-97.0313	-301.408	19.8263	-77.6339	-324.702	-38.9934	-50.1963	-328.223	-51.0079	-73.8256	-332.92	-63.0631	-101.417	-338.194	-15.6303	-12.3296	-326.777	-9.77369	22.1328	-351.682	15.7781	4.59444	
13	0.108333	-321.721	61.109	-6.89656	-307.488	65.2866	-46.8501	-300.56	56.0163	-81.539	-299.665	28.4539	-97.1725	-383.522	35.0022	-57.598	-397.095	37.5251	-80.5677	-410.199	35.4851	-108.977	-363.867	16.6201	-78.2204	-335.676	25.4058	-99.8216	-304.864	35.0739	-81.5385	-351.767	-4.24749	-75.4249	-331.391	4.67041	-95.0592	-305.062	22.4377	-76.9555	-349.118	-26.5707	-51.4292	-355.756	-39.3073	-77.2095	-363.446	-43.6411	-100.375	-347.72	-4.3224	-10.7896	-337.115	-2.51632	21.8913	-353.004	29.8316	10.0681	
14	0.116667	-310.302	67.3605	-4.39918	-295.012	66.9964	-41.1064	-291.486	57.719	-77.6322	-300.451	32.3704	-93.8301	-379.25	61.9888	-55.2285	-390.46	67.9549	-76.78	-403.46	72.6791	-101.885	-365.427	39.8853	-70.6093	-338.637	40.2999	-96.7882	-301.255	37.2542	-75.8858	-359.967	15.5597	-71.5186	-336.379	18.6227	-93.3075	-308.007	26.7624	-76.474	-363.176	-11.8969	-48.4845	-374.238	-16.5703	-69.2339	-388.453	-19.8704	-96.9087	-353.713	6.84405	-5.13709	-340.167	9.0661	22.3179	-348.866	43.2337	11.0028	
15	0.125	-292.591	67.3142	-1.70955	-281.739	62.7741	-40.3862	-284.137	54.3166	-78.2982	-295.695	34.7203	-93.2596	-358.579	89.4539	-48.3832	-367.79	101.563	-70.6214	-384.033	107.576	-95.9195	-357.943	60.8513	-65.1031	-329.704	55.7393	-94.0826	-299.083	40.458	-78.0414	-360.592	37.1158	-65.6292	-339.454	35.7253	-89.8522	-306.993	29.1938	-75.4103	-369.567	11.7542	-43.5987	-383.59	14.7701	-65.1333	-399.591	17.785	-87.6482	-353.379	28.4862	-4.42797	-339.991	21.8581	26.3496	-338.237	60.8605	13.92	
16	0.133333	-272.429	62.8603	2.5377	-265.6	57.8928	-40.4625	-270.811	50.5224	-72.7411	-294.037	38.6613	-91.1869	-328.308	105.151	-42.1024	-336.703	120.373	-67.9759	-345.68	133.365	-87.4682	-338.234	78.8458	-60.005	-318.497	64.7338	-90.9398	-292.391	40.07	-75.3909	-346.732	61.9003	-62.4688	-330.713	49.4039	-88.5105	-300.135	32.1609	-72.6043	-364.672	38.6286	-41.2196	-378.288	44.0468	-59.8582	-393.019	51.8016	-79.5521	-342.807	44.684	2.66314	-333.998	37.4709	28.7483	-319.213	70.0672	16.6012	
